:SAMPLES-PER-SECOND 30
:FULLY-SPECIFIED
:DEGREES
611
root  36.378 37.61 -4.31235 -34.8952 79.1874 -28.3125
RightUpLeg  -12.0204 -14.7923 6.67159
RightLeg  27.4183 -0.842902 -0.613914
RightFoot  -7.86155 0.136461 -6.24032
RightToes  2.21189e-009 0 -3.6325e-017
Spine  6.0627 -2.08955 15.2475
Spine1  2.85776 -0.635251 2.13707
HEad  -17.8203 7.53268 -5.8992
LeftShoulder1  0.0788411 3.30852 -34.2064
LeftArm  8.23856 -3.61022 -47.3413
LeftForeArm  28.7634 -11.7629 -9.903
LeftHand  0.00483561 2.29349 -0.690876
RightShoulder  -0.480803 -4.86687 28.3885
RightArm  11.479 4.37097 46.2534
RightForeArm  4.96945 4.98055 6.89612
RightHand  -0.639172 4.82704 -7.5483
LeftUpLeg  -3.59556 -1.22661 9.01396
LeftLeg  63.8754 -2.80888 -5.63409
LeftFoot  8.79905 1.46617 -8.56481
LeftToes  -3.01956e-010 3.07132e-011 1.04116e-011
612
root  37.3373 37.8202 -3.99511 -32.0336 79.057 -25.6495
RightUpLeg  -9.78445 -14.6322 5.89487
RightLeg  26.213 -0.896673 0.00346414
RightFoot  -8.98341 0.0658066 -6.10157
RightToes  2.21189e-009 0 -3.6325e-017
Spine  6.11317 -1.55477 16.5056
Spine1  2.53224 0.306589 0.249332
HEad  -18.0154 6.51346 -5.63889
LeftShoulder1  0.111971 3.22398 -34.0222
LeftArm  10.509 -3.31116 -46.8524
LeftForeArm  24.3955 -13.6257 -9.15905
LeftHand  -0.011238 2.67976 -0.160417
RightShoulder  -0.423512 -4.71641 27.9663
RightArm  12.3396 6.58011 47.2186
RightForeArm  5.03894 4.9549 7.30676
RightHand  -0.713784 5.7183 -7.76369
LeftUpLeg  -8.2443 -2.14454 8.13816
LeftLeg  64.8072 -2.14577 -4.35571
LeftFoot  7.1111 1.00789 -6.47322
LeftToes  -3.01956e-010 3.07132e-011 1.04116e-011
613
root  38.3267 38.0531 -3.66238 -27.7904 78.5623 -21.4482
RightUpLeg  -7.06959 -12.8777 4.90689
RightLeg  24.4561 -1.77188 0.599313
RightFoot  -9.9534 4.20508e-005 -5.58876
RightToes  2.21189e-009 0 -3.6325e-017
Spine  5.97252 -0.877601 17.6397
Spine1  2.52127 1.37896 -2.02387
HEad  -17.8474 6.44797 -5.65771
LeftShoulder1  0.16767 3.07751 -33.1906
LeftArm  11.0191 -2.74526 -46.7567
LeftForeArm  21.0274 -15.1042 -8.27075
LeftHand  -0.0319422 2.68202 0.775772
RightShoulder  -0.445305 -4.78068 27.9538
RightArm  13.0425 8.46149 47.8438
RightForeArm  5.0719 6.03995 7.58186
RightHand  -0.736537 5.51227 -8.13861
LeftUpLeg  -11.8316 -2.85964 7.04863
LeftLeg  62.84 -1.90466 -3.43568
LeftFoot  5.36653 0.662515 -4.7385
LeftToes  -3.01956e-010 3.07132e-011 1.04116e-011
614
root  39.3156 38.2529 -3.34902 -23.3682 77.9375 -16.9645
RightUpLeg  -4.29089 -11.2789 3.90859
RightLeg  22.6124 -2.38285 1.18946
RightFoot  -10.7497 -0.0437864 -5.49019
RightToes  2.21189e-009 0 -3.6325e-017
Spine  5.60476 -0.253694 18.0073
Spine1  2.91355 2.11734 -3.29274
HEad  -17.768 6.07936 -5.84836
LeftShoulder1  0.0997138 3.25167 -33.4038
LeftArm  11.8579 -2.66929 -45.8855
LeftForeArm  17.5883 -16.5442 -7.43112
LeftHand  -0.0422411 2.88014 1.25473
RightShoulder  -0.448237 -4.80986 27.387
RightArm  13.8592 10.6425 48.6469
RightForeArm  4.18308 7.16252 7.84998
RightHand  -0.756089 5.70223 -8.21433
LeftUpLeg  -14.42 -3.37685 5.99225
LeftLeg  58.3677 -2.24242 -3.40344
LeftFoot  2.69983 0.470636 -3.95486
LeftToes  -3.01956e-010 3.07132e-011 1.04116e-011
615
root  40.311 38.4143 -3.03754 -20.125 77.7442 -13.2983
RightUpLeg  -1.07645 -10.3066 2.85922
RightLeg  20.654 -2.78192 1.54915
RightFoot  -11.7032 -0.0952444 -5.06968
RightToes  2.21189e-009 0 -3.6325e-017
Spine  5.78867 0.06675 17.9625
Spine1  2.70461 2.54286 -4.39636
HEad  -17.4276 6.71138 -6.32056
LeftShoulder1  0.136561 3.15893 -33.5119
LeftArm  12.121 -2.31081 -44.7726
LeftForeArm  15.5861 -18.0322 -6.47778
LeftHand  -0.0288626 2.95948 0.635292
RightShoulder  -0.401927 -4.69776 26.6924
RightArm  14.4728 11.7478 49.2089
RightForeArm  2.4468 9.3325 7.71164
RightHand  -0.797533 6.13501 -8.33859
LeftUpLeg  -15.7625 -3.65703 4.93839
LeftLeg  51.6213 -2.83705 -3.39537
LeftFoot  1.18778 0.282429 -2.63476
LeftToes  -3.01956e-010 3.07132e-011 1.04116e-011
616
root  41.2697 38.5324 -2.7277 -17.7982 77.4608 -10.6965
RightUpLeg  1.89167 -9.67033 2.26528
RightLeg  18.6648 -2.74968 1.62154
RightFoot  -12.4459 -0.130558 -4.82104
RightToes  2.21189e-009 0 -3.6325e-017
Spine  5.66777 0.209711 18.2891
Spine1  2.96115 2.86457 -6.24995
HEad  -17.2818 6.98878 -5.81142
LeftShoulder1  0.206183 2.97631 -32.9515
LeftArm  11.8407 -2.28075 -43.9761
LeftForeArm  13.6252 -19.2667 -5.72291
LeftHand  -0.0502681 2.82762 1.64586
RightShoulder  -0.413346 -4.72198 26.9523
RightArm  15.9701 13.5488 49.377
RightForeArm  -0.0527285 11.7358 7.39995
RightHand  -0.865406 6.6924 -8.63374
LeftUpLeg  -16.3003 -3.34541 4.19466
LeftLeg  42.8916 -3.40705 -3.0243
LeftFoot  0.566187 0.155108 -1.52848
LeftToes  -3.01956e-010 3.07132e-011 1.04116e-011
617
root  42.1931 38.6181 -2.44239 -15.7057 76.9732 -8.46277
RightUpLeg  4.59823 -9.38507 1.78235
RightLeg  16.7052 -2.36317 1.66113
RightFoot  -13.1615 -0.159286 -4.43146
RightToes  2.21189e-009 0 -3.6325e-017
Spine  5.24906 0.459845 18.1404
Spine1  3.66079 3.11187 -7.38289
HEad  -17.0331 7.89836 -5.11595
LeftShoulder1  0.243183 2.87073 -32.2961
LeftArm  11.2004 -3.1434 -43.3503
LeftForeArm  12.1225 -20.1205 -5.27026
LeftHand  -0.0621423 2.02054 1.79315
RightShoulder  -0.294512 -4.37995 26.4015
RightArm  17.4497 14.9218 49.6176
RightForeArm  -3.47159 15.2642 6.47846
RightHand  -0.859239 6.63293 -8.60324
LeftUpLeg  -16.1313 -2.09022 3.48424
LeftLeg  32.5645 -3.6784 -2.18874
LeftFoot  1.30031 0.284859 -2.63523
LeftToes  -3.01956e-010 3.07132e-011 1.04116e-011
618
root  43.1186 38.6445 -2.1313 -15.5595 76.8893 -8.30164
RightUpLeg  7.31248 -9.20815 1.6831
RightLeg  14.6332 -2.30608 1.75754
RightFoot  -13.9835 -0.183706 -3.88033
RightToes  2.21189e-009 0 -3.6325e-017
Spine  3.38248 0.89379 17.842
Spine1  6.29573 3.36815 -7.72077
HEad  -17.7853 8.08554 -4.965
LeftShoulder1  0.38823 2.48795 -32.1216
LeftArm  9.49131 -5.05873 -42.8122
LeftForeArm  11.2746 -21.235 -4.78069
LeftHand  -0.0633072 1.67608 1.74628
RightShoulder  -0.278955 -4.34671 25.8009
RightArm  18.4359 16.9776 49.4443
RightForeArm  -8.18854 19.3545 5.53959
RightHand  -0.962032 6.84776 -9.44419
LeftUpLeg  -15.6505 0.212466 2.93067
LeftLeg  22.3554 -4.16103 -1.54265
LeftFoot  1.54923 0.490869 -4.43148
LeftToes  -3.01956e-010 3.07132e-011 1.04116e-011
619
root  44.068 38.6082 -1.78563 -17.0156 77.6553 -8.89612
RightUpLeg  10.9907 -9.1073 1.68751
RightLeg  12.634 -3.1465 1.48539
RightFoot  -14.883 -0.204004 -3.33062
RightToes  2.21189e-009 0 -3.6325e-017
Spine  3.44405 0.518245 15.9921
Spine1  6.99913 2.68404 -6.62525
HEad  -17.7965 8.52826 -4.61166
LeftShoulder1  0.39337 2.4562 -31.4446
LeftArm  7.8232 -6.65568 -42.041
LeftForeArm  10.5977 -23.1816 -4.48573
LeftHand  -0.0337494 1.26585 0.7636
RightShoulder  -0.200349 -4.11475 25.1625
RightArm  17.4353 19.2903 49.0609
RightForeArm  -8.43904 23.6135 5.46974
RightHand  -0.877687 6.06274 -9.20435
LeftUpLeg  -14.5407 3.15685 1.86309
LeftLeg  14.3558 -4.30279 -0.997892
LeftFoot  1.51404 0.376064 -3.419
LeftToes  -3.01956e-010 3.07132e-011 1.04116e-011
620
root  45.0278 38.4753 -1.45589 -20.0813 78.3506 -11.5513
RightUpLeg  13.8255 -8.79142 2.37368
RightLeg  11.4012 -4.36489 1.13968
RightFoot  -15.8637 -0.229294 -3.10039
RightToes  2.21189e-009 0 -3.6325e-017
Spine  2.98051 0.374806 15.0185
Spine1  7.83596 2.37126 -6.18599
HEad  -17.4722 8.92957 -3.66376
LeftShoulder1  0.390548 2.45088 -31.0073
LeftArm  4.40434 -9.31889 -40.9104
LeftForeArm  11.3303 -25.6337 -4.88622
LeftHand  -0.0554934 1.4484 1.42377
RightShoulder  -0.189504 -4.09027 24.6265
RightArm  12.5057 21.0005 48.1643
RightForeArm  -6.64608 28.9634 6.62515
RightHand  -0.947309 7.16594 -9.07553
LeftUpLeg  -14.2206 5.92335 1.2149
LeftLeg  9.61923 -2.18869 -0.528732
LeftFoot  1.80511 0.368392 -3.29492
LeftToes  -3.01956e-010 3.07132e-011 1.04116e-011
